# Blender 4.2.1 LTS
# www.blender.org
mtllib m27.mtl
o Cube
v -0.618400 0.096377 2.135668
v -0.618400 0.927491 2.135668
v -0.618400 0.927491 -0.560585
v 0.618400 0.096377 2.135668
v 0.618400 0.927491 2.135668
v 0.618400 0.927491 -0.560585
v -0.618400 0.526827 2.135668
v -0.618400 0.526827 -0.560585
v 0.618400 0.526827 -0.560585
v 0.618400 0.526827 2.135668
v -0.618400 0.096377 1.289809
v -0.618400 0.927491 1.289809
v 0.618400 0.096377 1.289809
v 0.618400 0.927491 1.289809
v 0.618400 0.526827 1.289809
v -0.618400 0.526827 1.289809
v 0.289122 0.927491 -0.560585
v 0.289122 0.096377 2.135668
v 0.289122 0.927491 2.135668
v 0.289122 0.526827 2.135668
v 0.289122 0.526827 -0.560585
v 0.289122 0.927491 1.289809
v 0.289122 0.096377 1.289809
v -0.241248 0.927491 2.135668
v -0.241248 0.526827 2.135668
v -0.241248 0.096377 1.289809
v -0.241248 0.927491 -0.560585
v -0.241248 0.096377 2.135668
v -0.241248 0.526827 -0.560585
v -0.241248 0.927491 1.289809
vn -1.0000 -0.0000 -0.0000
vn -0.0000 -0.0000 -1.0000
vn 1.0000 -0.0000 -0.0000
vn -0.0000 -0.0000 1.0000
vn -0.0000 -1.0000 -0.0000
vn -0.0000 1.0000 -0.0000
vt 0.515307 0.081169
vt 0.625000 0.081169
vt 0.625000 0.250000
vt 0.515307 0.250000
vt 0.515307 0.433442
vt 0.625000 0.433442
vt 0.625000 0.500000
vt 0.515307 0.500000
vt 0.515307 0.668831
vt 0.625000 0.668831
vt 0.625000 0.750000
vt 0.515307 0.750000
vt 0.515307 0.923765
vt 0.625000 0.923765
vt 0.625000 1.000000
vt 0.515307 1.000000
vt 0.308442 0.668831
vt 0.375000 0.668831
vt 0.375000 0.750000
vt 0.308442 0.750000
vt 0.798765 0.668831
vt 0.875000 0.668831
vt 0.875000 0.750000
vt 0.798764 0.750000
vt 0.375000 0.923765
vt 0.375000 1.000000
vt 0.375000 0.000000
vt 0.515307 0.000000
vt 0.375000 0.081169
vt 0.798765 0.500000
vt 0.875000 0.500000
vt 0.625000 0.000000
vt 0.691558 0.500000
vt 0.691558 0.668831
vt 0.515307 0.816558
vt 0.375000 0.816558
vt 0.691558 0.750000
vt 0.201235 0.668831
vt 0.201235 0.750000
vt 0.625000 0.816558
vt 0.515307 0.326235
vt 0.625000 0.326235
vt 0.125000 0.668831
vt 0.125000 0.750000
s 0
f 16/1/1 12/2/1 3/3/1 8/4/1
f 21/5/2 17/6/2 6/7/2 9/8/2
f 15/9/3 14/10/3 5/11/3 10/12/3
f 25/13/4 24/14/4 2/15/4 7/16/4
f 23/17/5 13/18/5 4/19/5 18/20/5
f 30/21/6 12/22/6 2/23/6 24/24/6
f 28/25/4 25/13/4 7/16/4 1/26/4
f 13/18/3 15/9/3 10/12/3 4/19/3
f 1/27/1 7/28/1 16/1/1 11/29/1
f 27/30/6 3/31/6 12/22/6 30/21/6
f 9/8/3 6/7/3 14/10/3 15/9/3
f 7/28/1 2/32/1 12/2/1 16/1/1
f 6/7/6 17/33/6 22/34/6 14/10/6
f 4/19/4 10/12/4 20/35/4 18/36/4
f 14/10/6 22/34/6 19/37/6 5/11/6
f 26/38/5 23/17/5 18/20/5 28/39/5
f 10/12/4 5/11/4 19/40/4 20/35/4
f 29/41/2 27/42/2 17/6/2 21/5/2
f 8/4/2 3/3/2 27/42/2 29/41/2
f 11/43/5 26/38/5 28/39/5 1/44/5
f 17/33/6 27/30/6 30/21/6 22/34/6
f 18/36/4 20/35/4 25/13/4 28/25/4
f 22/34/6 30/21/6 24/24/6 19/37/6
f 20/35/4 19/40/4 24/14/4 25/13/4
o Cube.001
v 0.253545 0.483624 -0.473547
v 0.255765 0.350401 -0.566920
v 0.253545 0.457734 -0.521677
v 0.253545 0.402925 -0.549535
v 0.556024 0.350401 -0.566920
v 0.553803 0.483624 -0.473547
v 0.553803 0.402925 -0.549535
v 0.553803 0.457734 -0.521677
v 0.255058 0.241967 -0.562980
v 0.253545 0.009808 0.327414
v 0.254479 0.150486 -0.526904
v 0.253988 0.059344 -0.427933
v 0.253660 0.019568 -0.321965
v 0.553803 0.009808 0.327414
v 0.555317 0.241967 -0.562980
v 0.553918 0.019568 -0.321965
v 0.554247 0.059344 -0.427933
v 0.554738 0.150486 -0.526904
v 0.253545 0.014204 1.032410
v 0.253545 0.144228 1.242733
v 0.253545 0.034619 1.105262
v 0.253545 0.062512 1.165868
v 0.553803 0.144228 1.242733
v 0.553803 0.014204 1.032410
v 0.553803 0.062512 1.165868
v 0.553803 0.034619 1.105262
v 0.253545 0.313120 1.261647
v 0.253545 0.483624 1.038380
v 0.253545 0.391983 1.219733
v 0.253545 0.454487 1.158821
v 0.253545 0.463654 1.127574
v 0.553803 0.483624 1.038380
v 0.553803 0.313120 1.261647
v 0.553803 0.463654 1.127574
v 0.553803 0.454487 1.158821
v 0.553803 0.391983 1.219733
v -0.253545 0.483624 -0.473547
v -0.255765 0.350401 -0.566920
v -0.253545 0.457734 -0.521677
v -0.253545 0.402925 -0.549535
v -0.556024 0.350401 -0.566920
v -0.553803 0.483624 -0.473547
v -0.553803 0.402925 -0.549535
v -0.553803 0.457734 -0.521677
v -0.255058 0.241967 -0.562980
v -0.253545 0.009808 0.327414
v -0.254479 0.150486 -0.526904
v -0.253988 0.059344 -0.427933
v -0.253660 0.019568 -0.321965
v -0.553803 0.009808 0.327414
v -0.555317 0.241967 -0.562980
v -0.553918 0.019568 -0.321965
v -0.554247 0.059344 -0.427933
v -0.554738 0.150486 -0.526904
v -0.253545 0.014204 1.032410
v -0.253545 0.144228 1.242733
v -0.253545 0.034619 1.105262
v -0.253545 0.062512 1.165868
v -0.553803 0.144228 1.242733
v -0.553803 0.014204 1.032410
v -0.553803 0.062512 1.165868
v -0.553803 0.034619 1.105262
v -0.253545 0.313120 1.261647
v -0.253545 0.483624 1.038380
v -0.253545 0.391983 1.219733
v -0.253545 0.454487 1.158821
v -0.253545 0.463654 1.127574
v -0.553803 0.483624 1.038380
v -0.553803 0.313120 1.261647
v -0.553803 0.463654 1.127574
v -0.553803 0.454487 1.158821
v -0.553803 0.391983 1.219733
vn -0.0000 -1.0000 0.0062
vn -0.0000 -0.0363 -0.9993
vn -0.0000 0.8807 -0.4737
vn -0.0000 0.4531 -0.8915
vn -0.0000 0.3142 -0.9493
vn -1.0000 -0.0002 -0.0006
vn -0.0000 -0.9999 -0.0150
vn -0.0000 -0.9362 -0.3514
vn -0.0000 -0.7356 -0.6774
vn -0.0000 -0.3669 -0.9303
vn -0.0000 1.0000 -0.0000
vn -0.0000 -0.9629 0.2698
vn -0.0000 -0.9084 0.4181
vn -0.0000 -0.6852 0.7284
vn 1.0000 0.0002 0.0006
vn -0.0000 0.9758 0.2185
vn -0.0000 0.9596 0.2815
vn -0.0000 0.6979 0.7162
vn -0.0000 0.4693 0.8830
vn -0.0000 -0.1113 0.9938
vn 1.0000 -0.0002 -0.0006
vn -1.0000 0.0002 0.0006
vt 0.125000 0.622500
vt 0.375000 0.622500
vt 0.375000 0.725000
vt 0.125000 0.725000
vt 0.537740 0.250000
vt 0.613750 0.250000
vt 0.613750 0.500000
vt 0.537740 0.500000
vt 0.875000 0.511250
vt 0.625000 0.511250
vt 0.625000 0.500000
vt 0.875000 0.500000
vt 0.625000 0.250000
vt 0.618603 0.500000
vt 0.618603 0.250000
vt 0.375000 0.025000
vt 0.378481 0.012454
vt 0.387631 0.003301
vt 0.400000 0.000000
vt 0.591504 0.000000
vt 0.604607 0.002183
vt 0.615855 0.008408
vt 0.622736 0.017742
vt 0.625000 0.028750
vt 0.625000 0.238750
vt 0.622473 0.243603
vt 0.618603 0.247473
vt 0.473149 0.240740
vt 0.417928 0.214254
vt 0.385404 0.174434
vt 0.375000 0.127500
vt 0.125096 0.575532
vt 0.375096 0.575532
vt 0.125369 0.500000
vt 0.375000 0.500000
vt 0.375000 0.250369
vt 0.475343 0.250001
vt 0.475343 0.500001
vt 0.875000 0.721250
vt 0.625000 0.721250
vt 0.375000 0.737500
vt 0.125000 0.737500
vt 0.375000 0.750000
vt 0.125000 0.750000
vt 0.375000 1.000000
vt 0.400000 0.750000
vt 0.400000 1.000000
vt 0.385404 0.575566
vt 0.417928 0.535746
vt 0.473149 0.509260
vt 0.618603 0.502527
vt 0.622473 0.506397
vt 0.622736 0.732258
vt 0.615855 0.741592
vt 0.604607 0.747817
vt 0.591504 0.750000
vt 0.400000 0.750000
vt 0.387631 0.746699
vt 0.378481 0.737546
vt 0.375000 0.725000
vt 0.875000 0.732173
vt 0.625000 0.732173
vt 0.875000 0.750000
vt 0.625000 0.750000
vt 0.625000 1.000000
vt 0.604230 1.000000
vt 0.604230 0.750000
vt 0.591504 1.000000
vt 0.591504 0.750000
s 0
f 40/45/7 44/46/7 54/47/7 49/48/7
f 39/49/8 32/50/8 35/51/8 45/52/8
f 31/53/9 36/54/9 38/55/9 33/56/9
f 33/57/10 38/55/10 37/58/10 34/59/10
f 34/59/11 37/58/11 35/51/11 32/50/11
f 49/60/12 51/61/12 52/62/12 50/63/12 57/64/12 59/65/12 60/66/12 61/67/12 58/68/12 31/69/12 33/70/12 34/71/12 32/50/12 39/49/12 41/72/12 42/73/12 43/74/12 40/75/12
f 44/46/13 40/45/13 43/76/13 46/77/13
f 46/77/14 43/76/14 42/78/14 47/79/14
f 47/79/15 42/80/15 41/81/15 48/82/15
f 48/82/16 41/81/16 39/49/16 45/52/16
f 36/54/17 31/53/17 58/83/17 62/84/17
f 49/48/18 54/47/18 56/85/18 51/86/18
f 51/86/19 56/85/19 55/87/19 52/88/19
f 52/89/20 55/87/20 53/90/20 50/91/20
f 44/46/21 46/92/21 47/93/21 48/94/21 45/52/21 35/51/21 37/95/21 38/96/21 36/54/21 62/84/21 64/97/21 65/98/21 66/99/21 63/100/21 53/101/21 55/102/21 56/103/21 54/104/21
f 62/84/22 58/83/22 61/105/22 64/106/22
f 64/106/23 61/105/23 60/107/23 65/108/23
f 65/108/24 60/109/24 59/110/24 66/111/24
f 66/111/25 59/110/25 57/112/25 63/113/25
f 53/90/26 63/113/26 57/112/26 50/91/26
f 76/45/7 85/48/7 90/47/7 80/46/7
f 75/49/8 81/52/8 71/51/8 68/50/8
f 67/53/9 69/56/9 74/55/9 72/54/9
f 69/57/10 70/59/10 73/58/10 74/55/10
f 70/59/11 68/50/11 71/51/11 73/58/11
f 85/60/27 76/75/27 79/74/27 78/73/27 77/72/27 75/49/27 68/50/27 70/71/27 69/70/27 67/69/27 94/68/27 97/67/27 96/66/27 95/65/27 93/64/27 86/63/27 88/62/27 87/61/27
f 80/46/13 82/77/13 79/76/13 76/45/13
f 82/77/14 83/79/14 78/78/14 79/76/14
f 83/79/15 84/82/15 77/81/15 78/80/15
f 84/82/16 81/52/16 75/49/16 77/81/16
f 72/54/17 98/84/17 94/83/17 67/53/17
f 85/48/18 87/86/18 92/85/18 90/47/18
f 87/86/19 88/88/19 91/87/19 92/85/19
f 88/89/20 86/91/20 89/90/20 91/87/20
f 80/46/28 90/104/28 92/103/28 91/102/28 89/101/28 99/100/28 102/99/28 101/98/28 100/97/28 98/84/28 72/54/28 74/96/28 73/95/28 71/51/28 81/52/28 84/94/28 83/93/28 82/92/28
f 98/84/22 100/106/22 97/105/22 94/83/22
f 100/106/23 101/108/23 96/107/23 97/105/23
f 101/108/24 102/111/24 95/110/24 96/109/24
f 102/111/25 99/113/25 93/112/25 95/110/25
f 89/90/26 86/91/26 93/112/26 99/113/26
o Cube.002
v -0.177920 0.577362 -0.560758
v -0.177920 0.875159 -0.560758
v -0.177920 0.435447 -0.798835
v -0.177920 0.875159 -0.798835
v 0.216753 0.577362 -0.560758
v 0.216753 0.875159 -0.560758
v 0.216753 0.435447 -0.798835
v 0.216753 0.875159 -0.798835
v -0.177920 0.483668 -1.126708
v -0.177920 0.161403 -1.126708
v 0.216753 0.161403 -1.126708
v 0.216753 0.483668 -1.126708
v -0.177920 0.483668 -1.317560
v -0.177920 0.161403 -1.317560
v 0.216753 0.161403 -1.317560
v 0.216753 0.483668 -1.317560
v 0.216753 0.073317 -1.126708
v -0.177920 0.073317 -1.126708
v 0.216753 0.073317 -1.317560
v -0.177920 0.073317 -1.317560
v -0.177920 0.654945 -1.126708
v 0.216753 0.654945 -1.126708
v -0.177920 0.654945 -1.317560
v 0.216753 0.654945 -1.317560
v -0.177920 0.654945 -1.126708
v 0.216753 0.654945 -1.126708
vn -1.0000 -0.0000 -0.0000
vn -0.0000 -0.7673 0.6413
vn 1.0000 -0.0000 -0.0000
vn -0.0000 -0.0000 1.0000
vn -0.0000 -0.8590 0.5120
vn -0.0000 1.0000 -0.0000
vn -0.0000 0.6421 -0.7666
vn -0.0000 -0.0000 -1.0000
vn -0.0000 -1.0000 -0.0000
vt 0.375000 0.000000
vt 0.625000 0.000000
vt 0.625000 0.250000
vt 0.375000 0.250000
vt 0.375000 0.500000
vt 0.125000 0.500000
vt 0.625000 0.500000
vt 0.625000 0.750000
vt 0.375000 0.750000
vt 0.625000 1.000000
vt 0.375000 1.000000
vt 0.125000 0.750000
vt 0.875000 0.500000
vt 0.875000 0.750000
s 0
f 103/114/29 104/115/29 106/116/29 105/117/29
f 109/118/30 105/119/30 112/119/30 113/118/30
f 109/118/31 110/120/31 108/121/31 107/122/31
f 107/122/32 108/121/32 104/123/32 103/124/32
f 105/119/33 109/118/33 107/122/33 103/125/33
f 110/120/34 106/126/34 104/127/34 108/121/34
f 114/120/31 113/118/31 117/118/31 118/120/31
f 106/126/35 110/120/35 114/120/35 111/126/35
f 105/117/29 106/116/29 111/116/29 112/117/29
f 110/120/31 109/118/31 113/118/31 114/120/31
f 116/117/36 115/116/36 118/120/36 117/118/36
f 112/117/29 116/117/29 122/117/29 120/117/29
f 118/120/36 115/116/36 125/116/36 126/120/36
f 112/117/29 111/116/29 115/116/29 116/117/29
f 119/118/37 120/119/37 122/119/37 121/118/37
f 113/118/32 112/119/32 120/119/32 119/118/32
f 117/118/31 113/118/31 119/118/31 121/118/31
f 116/117/36 117/118/36 121/118/36 122/117/36
f 123/126/34 124/120/34 126/120/34 125/116/34
f 115/116/29 111/116/29 123/116/29 125/116/29
f 111/126/32 114/120/32 124/120/32 123/126/32
f 114/120/31 118/120/31 126/120/31 124/120/31
f 123/126/34 124/120/34 128/120/34 127/126/34
o Cube.004
v -0.549106 0.080283 -1.317205
v -0.549106 0.747137 -1.317205
v -0.509322 0.101350 -1.382911
v 0.591218 0.080283 -1.317205
v 0.591218 0.747137 -1.317205
v 0.545536 0.101350 -1.382911
v -0.549106 0.747137 -1.382346
v -0.549106 0.221852 -2.227660
v 0.591218 0.221852 -2.227660
v 0.591218 0.747137 -1.382346
vn -1.0000 -0.0000 -0.0000
vn 1.0000 -0.0000 -0.0000
vn -0.0000 -0.0000 1.0000
vn -0.0000 -0.9881 -0.1536
vn -0.0000 1.0000 -0.0000
vn 0.9974 0.0615 -0.0382
vn -0.0000 0.9900 0.1412
vn -0.9965 0.0705 -0.0438
vn -0.0000 0.0009 -1.0000
vt 0.375000 0.000000
vt 0.625000 0.000000
vt 0.625000 0.250000
vt 0.375000 0.250000
vt 0.375000 0.500000
vt 0.625000 0.500000
vt 0.625000 0.750000
vt 0.375000 0.750000
vt 0.625000 1.000000
vt 0.375000 1.000000
vt 0.125000 0.500000
vt 0.125000 0.750000
vt 0.875000 0.500000
vt 0.875000 0.750000
vt 0.412729 0.287729
vt 0.412729 0.462271
s 0
f 129/128/38 130/129/38 135/130/38 136/131/38
f 137/132/39 138/133/39 133/134/39 132/135/39
f 132/135/40 133/134/40 130/136/40 129/137/40
f 136/138/41 137/132/41 132/135/41 129/139/41
f 138/133/42 135/140/42 130/141/42 133/134/42
f 131/142/43 136/131/43 135/130/43
f 131/142/44 134/143/44 137/132/44 136/131/44
f 134/143/45 138/133/45 137/132/45
f 131/142/46 135/130/46 138/133/46 134/143/46
