{
	"asset":{
		"generator":"Khronos glTF Blender I/O v4.2.69",
		"version":"2.0"
	},
	"scene":0,
	"scenes":[
		{
			"name":"Scene",
			"nodes":[
				0,
				1,
				2,
				3,
				4
			]
		}
	],
	"nodes":[
		{
			"mesh":0,
			"name":"Cube",
			"scale":[
				0.6184003949165344,
				0.4565757215023041,
				1.3700034618377686
			],
			"translation":[
				0,
				0.47091564536094666,
				0.8094180226325989
			]
		},
		{
			"mesh":1,
			"name":"Cube.001",
			"scale":[
				0.15012934803962708,
				0.23690767586231232,
				0.8999564051628113
			],
			"translation":[
				0.4036738872528076,
				0.24671612679958344,
				0.34541356563568115
			]
		},
		{
			"name":"Empty",
			"rotation":[
				0.5,
				-0.5,
				0.5,
				0.5
			],
			"scale":[
				0.9985989928245544,
				0.9909356832504272,
				0.9985989928245544
			],
			"translation":[
				1.8093204498291016,
				0.4658829867839813,
				-0.05908934026956558
			]
		},
		{
			"mesh":2,
			"name":"Cube.002",
			"scale":[
				0.1973363757133484,
				0.14889851212501526,
				0.1973363757133484
			],
			"translation":[
				0.01941618323326111,
				0.7262607216835022,
				-0.7580945491790771
			]
		},
		{
			"mesh":3,
			"name":"Cube.003",
			"rotation":[
				0,
				1,
				0,
				0
			],
			"scale":[
				-0.23005175590515137,
				-0.35693010687828064,
				-0.23005175590515137
			],
			"translation":[
				0.021055936813354492,
				0.4137113392353058,
				-1.550032377243042
			]
		}
	],
	"meshes":[
		{
			"name":"Cube.001",
			"primitives":[
				{
					"attributes":{
						"POSITION":0,
						"NORMAL":1,
						"TEXCOORD_0":2,
						"TANGENT":3
					},
					"indices":4
				}
			]
		},
		{
			"name":"Cube.003",
			"primitives":[
				{
					"attributes":{
						"POSITION":5,
						"NORMAL":6,
						"TEXCOORD_0":7
					},
					"indices":8
				}
			]
		},
		{
			"name":"Cube.005",
			"primitives":[
				{
					"attributes":{
						"POSITION":9,
						"NORMAL":10,
						"TEXCOORD_0":11,
						"TANGENT":12
					},
					"indices":13
				}
			]
		},
		{
			"name":"Cube.007",
			"primitives":[
				{
					"attributes":{
						"POSITION":14,
						"NORMAL":15,
						"TEXCOORD_0":16,
						"TANGENT":17
					},
					"indices":18
				}
			]
		}
	],
	"accessors":[
		{
			"bufferView":0,
			"componentType":5126,
			"count":56,
			"max":[
				1,
				1,
				0.9680632948875427
			],
			"min":[
				-1,
				-0.820320188999176,
				-1
			],
			"type":"VEC3"
		},
		{
			"bufferView":1,
			"componentType":5126,
			"count":56,
			"type":"VEC3"
		},
		{
			"bufferView":2,
			"componentType":5126,
			"count":56,
			"type":"VEC2"
		},
		{
			"bufferView":3,
			"componentType":5126,
			"count":56,
			"type":"VEC4"
		},
		{
			"bufferView":4,
			"componentType":5123,
			"count":144,
			"type":"SCALAR"
		},
		{
			"bufferView":5,
			"componentType":5126,
			"count":216,
			"max":[
				1.014790415763855,
				1,
				1.0180866718292236
			],
			"min":[
				-6.392471790313721,
				-1,
				-1.0137534141540527
			],
			"type":"VEC3"
		},
		{
			"bufferView":6,
			"componentType":5126,
			"count":216,
			"type":"VEC3"
		},
		{
			"bufferView":7,
			"componentType":5126,
			"count":216,
			"type":"VEC2"
		},
		{
			"bufferView":8,
			"componentType":5123,
			"count":408,
			"type":"SCALAR"
		},
		{
			"bufferView":9,
			"componentType":5126,
			"count":73,
			"max":[
				1,
				1,
				1
			],
			"min":[
				-1,
				-4.385156154632568,
				-2.8350863456726074
			],
			"type":"VEC3"
		},
		{
			"bufferView":10,
			"componentType":5126,
			"count":73,
			"type":"VEC3"
		},
		{
			"bufferView":11,
			"componentType":5126,
			"count":73,
			"type":"VEC2"
		},
		{
			"bufferView":12,
			"componentType":5126,
			"count":73,
			"type":"VEC4"
		},
		{
			"bufferView":13,
			"componentType":5123,
			"count":138,
			"type":"SCALAR"
		},
		{
			"bufferView":14,
			"componentType":5126,
			"count":16,
			"max":[
				2.6658427715301514,
				1.093698263168335,
				1
			],
			"min":[
				-2.7791647911071777,
				-1,
				-2.4295201301574707
			],
			"type":"VEC3"
		},
		{
			"bufferView":15,
			"componentType":5126,
			"count":16,
			"type":"VEC3"
		},
		{
			"bufferView":16,
			"componentType":5126,
			"count":16,
			"type":"VEC2"
		},
		{
			"bufferView":17,
			"componentType":5126,
			"count":16,
			"type":"VEC4"
		},
		{
			"bufferView":18,
			"componentType":5123,
			"count":24,
			"type":"SCALAR"
		}
	],
	"bufferViews":[
		{
			"buffer":0,
			"byteLength":672,
			"byteOffset":0,
			"target":34962
		},
		{
			"buffer":0,
			"byteLength":672,
			"byteOffset":672,
			"target":34962
		},
		{
			"buffer":0,
			"byteLength":448,
			"byteOffset":1344,
			"target":34962
		},
		{
			"buffer":0,
			"byteLength":896,
			"byteOffset":1792,
			"target":34962
		},
		{
			"buffer":0,
			"byteLength":288,
			"byteOffset":2688,
			"target":34963
		},
		{
			"buffer":0,
			"byteLength":2592,
			"byteOffset":2976,
			"target":34962
		},
		{
			"buffer":0,
			"byteLength":2592,
			"byteOffset":5568,
			"target":34962
		},
		{
			"buffer":0,
			"byteLength":1728,
			"byteOffset":8160,
			"target":34962
		},
		{
			"buffer":0,
			"byteLength":816,
			"byteOffset":9888,
			"target":34963
		},
		{
			"buffer":0,
			"byteLength":876,
			"byteOffset":10704,
			"target":34962
		},
		{
			"buffer":0,
			"byteLength":876,
			"byteOffset":11580,
			"target":34962
		},
		{
			"buffer":0,
			"byteLength":584,
			"byteOffset":12456,
			"target":34962
		},
		{
			"buffer":0,
			"byteLength":1168,
			"byteOffset":13040,
			"target":34962
		},
		{
			"buffer":0,
			"byteLength":276,
			"byteOffset":14208,
			"target":34963
		},
		{
			"buffer":0,
			"byteLength":192,
			"byteOffset":14484,
			"target":34962
		},
		{
			"buffer":0,
			"byteLength":192,
			"byteOffset":14676,
			"target":34962
		},
		{
			"buffer":0,
			"byteLength":128,
			"byteOffset":14868,
			"target":34962
		},
		{
			"buffer":0,
			"byteLength":256,
			"byteOffset":14996,
			"target":34962
		},
		{
			"buffer":0,
			"byteLength":48,
			"byteOffset":15252,
			"target":34963
		}
	],
	"buffers":[
		{
			"byteLength":15300,
			"uri":"m27-b2c67acf851420df3e85b08465d85288.bin"
		}
	]
}
