{
	"asset":{
		"generator":"Khronos glTF Blender I/O v4.2.69",
		"version":"2.0"
	},
	"extensionsUsed":[
		"KHR_lights_punctual"
	],
	"extensionsRequired":[
		"KHR_lights_punctual"
	],
	"extensions":{
		"KHR_lights_punctual":{
			"lights":[
				{
					"color":[
						1,
						1,
						1
					],
					"intensity":54351.41306588226,
					"type":"point",
					"name":"Light"
				}
			]
		}
	},
	"scene":0,
	"scenes":[
		{
			"name":"Scene",
			"nodes":[
				0,
				1,
				2,
				3
			]
		}
	],
	"nodes":[
		{
			"extensions":{
				"KHR_lights_punctual":{
					"light":0
				}
			},
			"name":"Light",
			"rotation":[
				-0.28416627645492554,
				0.7269423007965088,
				0.34203392267227173,
				0.5232754945755005
			],
			"translation":[
				4.076245307922363,
				5.903861999511719,
				-1.0054539442062378
			]
		},
		{
			"camera":0,
			"name":"Camera",
			"rotation":[
				-0.20997299253940582,
				0.3857799470424652,
				0.09062844514846802,
				0.8937962055206299
			],
			"translation":[
				7.358891487121582,
				4.958309173583984,
				6.925790786743164
			]
		},
		{
			"mesh":0,
			"name":"Circle"
		},
		{
			"mesh":1,
			"name":"Plane",
			"scale":[
				75,
				75,
				75
			],
			"translation":[
				0,
				38.03815841674805,
				0
			]
		}
	],
	"cameras":[
		{
			"name":"Camera",
			"perspective":{
				"aspectRatio":1.7777777777777777,
				"yfov":0.39959648408210363,
				"zfar":100,
				"znear":0.10000000149011612
			},
			"type":"perspective"
		}
	],
	"meshes":[
		{
			"name":"Circle",
			"primitives":[
				{
					"attributes":{
						"POSITION":0,
						"NORMAL":1,
						"TEXCOORD_0":2,
						"TANGENT":3
					},
					"indices":4
				}
			]
		},
		{
			"name":"Plane.002",
			"primitives":[
				{
					"attributes":{
						"POSITION":5,
						"NORMAL":6,
						"TEXCOORD_0":7,
						"TANGENT":8
					},
					"indices":9
				}
			]
		}
	],
	"accessors":[
		{
			"bufferView":0,
			"componentType":5126,
			"count":128,
			"max":[
				37.5,
				50,
				37.5
			],
			"min":[
				-37.5,
				0,
				-37.5
			],
			"type":"VEC3"
		},
		{
			"bufferView":1,
			"componentType":5126,
			"count":128,
			"type":"VEC3"
		},
		{
			"bufferView":2,
			"componentType":5126,
			"count":128,
			"type":"VEC2"
		},
		{
			"bufferView":3,
			"componentType":5126,
			"count":128,
			"type":"VEC4"
		},
		{
			"bufferView":4,
			"componentType":5123,
			"count":192,
			"type":"SCALAR"
		},
		{
			"bufferView":5,
			"componentType":5126,
			"count":10404,
			"max":[
				1,
				-0.4447140693664551,
				1
			],
			"min":[
				-1,
				-0.5521832704544067,
				-1
			],
			"type":"VEC3"
		},
		{
			"bufferView":6,
			"componentType":5126,
			"count":10404,
			"type":"VEC3"
		},
		{
			"bufferView":7,
			"componentType":5126,
			"count":10404,
			"type":"VEC2"
		},
		{
			"bufferView":8,
			"componentType":5126,
			"count":10404,
			"type":"VEC4"
		},
		{
			"bufferView":9,
			"componentType":5123,
			"count":61206,
			"type":"SCALAR"
		}
	],
	"bufferViews":[
		{
			"buffer":0,
			"byteLength":1536,
			"byteOffset":0,
			"target":34962
		},
		{
			"buffer":0,
			"byteLength":1536,
			"byteOffset":1536,
			"target":34962
		},
		{
			"buffer":0,
			"byteLength":1024,
			"byteOffset":3072,
			"target":34962
		},
		{
			"buffer":0,
			"byteLength":2048,
			"byteOffset":4096,
			"target":34962
		},
		{
			"buffer":0,
			"byteLength":384,
			"byteOffset":6144,
			"target":34963
		},
		{
			"buffer":0,
			"byteLength":124848,
			"byteOffset":6528,
			"target":34962
		},
		{
			"buffer":0,
			"byteLength":124848,
			"byteOffset":131376,
			"target":34962
		},
		{
			"buffer":0,
			"byteLength":83232,
			"byteOffset":256224,
			"target":34962
		},
		{
			"buffer":0,
			"byteLength":166464,
			"byteOffset":339456,
			"target":34962
		},
		{
			"buffer":0,
			"byteLength":122412,
			"byteOffset":505920,
			"target":34963
		}
	],
	"buffers":[
		{
			"byteLength":628332,
			"uri":"terrain-85b5692ba2d2a122fc0b70b9508c44ce.bin"
		}
	]
}
