# Blender 4.2.2 LTS
# www.blender.org
mtllib m27_arm_component.mtl
o Cube
v -0.150000 -0.178175 1.652878
v 0.150000 -0.178175 1.652878
v -0.150000 0.521824 1.236912
v 0.150000 0.521824 1.236912
v -0.150000 0.138806 1.652878
v 0.150000 0.138806 1.652878
v -0.150000 0.270881 -0.147122
v 0.150000 0.270881 -0.147122
v 0.150000 0.270881 1.011254
v -0.150000 0.270881 1.011254
v -0.150000 0.422090 -0.147122
v 0.150000 0.422090 -0.147122
v -0.150000 0.521824 0.042298
v 0.150000 0.521824 0.042298
vn -0.0000 0.7356 0.6774
vn -0.0000 0.8848 -0.4659
vn 1.0000 -0.0000 -0.0000
vn -0.0000 -0.8193 -0.5734
vn -0.0000 -0.0000 1.0000
vn -0.0000 -1.0000 -0.0000
vn -0.0000 -0.0000 -1.0000
vn -1.0000 -0.0000 -0.0000
vn -0.0000 1.0000 -0.0000
vt 0.000000 0.000000
vt 0.488208 1.000000
vt 0.488208 0.750000
vt 0.589381 0.500000
vt 0.589381 0.250000
vt 0.375000 0.750000
vt 0.375000 1.000000
vt 0.535377 0.250000
vt 0.535377 0.500000
s 0
usemtl Material.001
f 3/1/1 5/2/1 6/3/1 4/1/1
f 12/4/2 11/5/2 13/1/2 14/1/2
f 2/6/3 9/1/3 4/1/3 6/3/3
f 1/7/4 10/1/4 9/1/4 2/6/4
f 2/6/5 6/3/5 5/2/5 1/7/5
f 10/1/6 7/8/6 8/9/6 9/1/6
f 7/8/7 11/5/7 12/4/7 8/9/7
f 1/7/8 5/2/8 3/1/8 10/1/8
f 8/9/3 12/4/3 14/1/3 4/1/3 9/1/3
f 4/1/9 14/1/9 13/1/9 3/1/9
f 7/8/8 10/1/8 3/1/8 13/1/8 11/5/8
o Cube.001
v -0.572500 0.077288 2.552943
v 0.572500 0.077288 2.552943
v 0.572500 -0.083823 2.552943
v -0.572500 -0.083823 2.552943
v -0.572500 -0.244934 1.941405
v -0.572500 0.455066 1.941405
v 0.572500 -0.244934 1.941405
v 0.572500 0.455066 1.941405
v -0.572500 0.455066 1.697322
v 0.572500 0.455066 1.697322
v -0.572500 0.227288 1.652943
v 0.572500 0.227288 1.652943
v -0.572500 -0.181641 1.652943
v 0.572500 -0.181641 1.652943
v 0.572500 -0.181641 1.697322
v -0.572500 -0.181641 1.697322
vn -0.0000 -0.0000 1.0000
vn -1.0000 -0.0000 -0.0000
vn -0.0000 -0.9670 0.2548
vn -0.0000 -0.0000 -1.0000
vn 1.0000 -0.0000 -0.0000
vn -0.0000 1.0000 -0.0000
vn -0.0000 -0.9680 -0.2510
vn -0.0000 0.1912 -0.9815
vn -0.0000 -1.0000 -0.0000
vn -0.0000 -0.3580 0.9337
vn -0.0000 -0.8847 0.4662
vt 0.432540 0.750000
vt 0.490079 0.750000
vt 0.490079 1.000000
vt 0.432540 1.000000
vt 0.875000 0.580128
vt 0.875000 0.512327
vt 0.000000 0.000000
vt 0.625000 0.512327
vt 0.625000 0.580128
s 0
usemtl Material.002
f 17/10/10 16/11/10 15/12/10 18/13/10
f 18/13/11 15/12/11 20/14/11 23/15/11 25/16/11 27/16/11 30/16/11 19/16/11
f 18/13/12 19/16/12 21/16/12 17/10/12
f 26/16/13 28/16/13 27/16/13 25/16/13
f 17/10/14 21/16/14 29/16/14 28/16/14 26/16/14 24/17/14 22/18/14 16/11/14
f 24/17/15 23/15/15 20/14/15 22/18/15
f 30/16/16 29/16/16 21/16/16 19/16/16
f 24/17/17 26/16/17 25/16/17 23/15/17
f 29/16/18 30/16/18 27/16/18 28/16/18
f 29/16/19 22/16/19 20/16/19 30/16/19
f 21/16/20 16/16/20 15/16/20 19/16/20
f 21/16/11 16/16/11 22/16/11 29/16/11
f 19/16/11 15/16/11 20/16/11 30/16/11
