# Blender 4.2.2 LTS
# www.blender.org
mtllib m27_body_component.mtl
o Cube
v -0.620000 0.686848 -0.483023
v -0.620000 -0.273152 -2.183022
v -0.620000 0.686848 -2.183022
v 0.620000 0.686848 -0.483023
v 0.620000 -0.273152 -2.183022
v 0.620000 0.686848 -2.183022
v -0.620000 -0.273152 -1.172212
v -0.620000 0.686848 -1.172212
v 0.620000 -0.273152 -1.172212
v 0.620000 0.686848 -1.172212
v -0.620000 0.222208 -0.483023
v -0.620000 0.222208 -2.183022
v 0.620000 0.222208 -2.183022
v 0.620000 0.222208 -0.483023
v 0.620000 0.222208 -1.172212
v -0.620000 0.222208 -1.172212
vn -1.0000 -0.0000 -0.0000
vn -0.0000 -0.0000 -1.0000
vn 1.0000 -0.0000 -0.0000
vn -0.0000 -0.0000 1.0000
vn -0.0000 1.0000 -0.0000
vn -0.0000 -1.0000 -0.0000
vt 0.504000 0.101351
vt 0.625000 0.101351
vt 0.625000 0.250000
vt 0.504000 0.250000
vt 0.625000 0.500000
vt 0.504000 0.500000
vt 0.504000 0.648649
vt 0.625000 0.648649
vt 0.625000 0.750000
vt 0.504000 0.750000
vt 0.625000 1.000000
vt 0.504000 1.000000
vt 0.875000 0.648649
vt 0.875000 0.750000
vt 0.875000 0.500000
vt 0.125000 0.500000
vt 0.375000 0.500000
vt 0.375000 0.648649
vt 0.125000 0.648649
vt 0.504000 0.000000
vt 0.625000 0.000000
vt 0.375000 0.250000
vt 0.375000 0.101351
s 0
usemtl Material
f 16/1/1 8/2/1 3/3/1 12/4/1
f 12/4/2 3/3/2 6/5/2 13/6/2
f 15/7/3 10/8/3 4/9/3 14/10/3
f 14/10/4 4/9/4 1/11/4 11/12/4
f 10/8/5 8/13/5 1/14/5 4/9/5
f 6/5/5 3/15/5 8/13/5 10/8/5
f 2/16/6 5/17/6 9/18/6 7/19/6
f 13/6/3 6/5/3 10/8/3 15/7/3
f 11/20/1 1/21/1 8/2/1 16/1/1
f 5/17/3 13/6/3 15/7/3 9/18/3
f 2/22/2 12/4/2 13/6/2 5/17/2
f 7/23/1 16/1/1 12/4/1 2/22/1
f 7/23/4 9/18/4 15/7/4 16/1/4
f 11/12/6 16/1/6 15/7/6 14/10/6
