# Blender 4.2.1 LTS
# www.blender.org
mtllib ramp_heights.mtl
o Cube
v -14.522509 -2.811929 -25.260273
v -14.522509 2.801495 -25.260273
v -14.522509 -2.811929 -30.873699
v -14.522509 2.801495 -30.873699
v -8.909084 -2.811929 -25.260273
v -8.909084 2.801495 -25.260273
v -8.909084 -2.811929 -30.873699
v -8.909084 2.801495 -30.873699
vn -1.0000 -0.0000 -0.0000
vn -0.0000 -0.0000 -1.0000
vn 1.0000 -0.0000 -0.0000
vn -0.0000 -0.0000 1.0000
vn -0.0000 -1.0000 -0.0000
vn -0.0000 1.0000 -0.0000
vt 0.375000 0.000000
vt 0.625000 0.000000
vt 0.625000 0.250000
vt 0.375000 0.250000
vt 0.625000 0.500000
vt 0.375000 0.500000
vt 0.625000 0.750000
vt 0.375000 0.750000
vt 0.625000 1.000000
vt 0.375000 1.000000
vt 0.125000 0.500000
vt 0.125000 0.750000
vt 0.875000 0.500000
vt 0.875000 0.750000
s 0
f 1/1/1 2/2/1 4/3/1 3/4/1
f 3/4/2 4/3/2 8/5/2 7/6/2
f 7/6/3 8/5/3 6/7/3 5/8/3
f 5/8/4 6/7/4 2/9/4 1/10/4
f 3/11/5 7/6/5 5/8/5 1/12/5
f 8/5/6 4/13/6 2/14/6 6/7/6
o Cube.001
v -23.288626 -0.503692 -25.354774
v -23.162905 -0.840708 -25.354774
v -23.288626 -0.503692 -30.939888
v -23.162905 -0.840708 -30.939888
v -14.464140 2.788208 -25.354774
v -14.338419 2.451191 -25.354774
v -14.464140 2.788208 -30.939888
v -14.338419 2.451191 -30.939888
vn -0.9369 -0.3495 -0.0000
vn -0.0000 -0.0000 -1.0000
vn 0.9369 0.3495 -0.0000
vn -0.0000 -0.0000 1.0000
vn -0.3495 0.9369 -0.0000
vn 0.3495 -0.9369 -0.0000
vt 0.375000 0.000000
vt 0.625000 0.000000
vt 0.625000 0.250000
vt 0.375000 0.250000
vt 0.625000 0.500000
vt 0.375000 0.500000
vt 0.625000 0.750000
vt 0.375000 0.750000
vt 0.625000 1.000000
vt 0.375000 1.000000
vt 0.125000 0.500000
vt 0.125000 0.750000
vt 0.875000 0.500000
vt 0.875000 0.750000
s 0
f 9/15/7 11/18/7 12/17/7 10/16/7
f 11/18/8 15/20/8 16/19/8 12/17/8
f 15/20/9 13/22/9 14/21/9 16/19/9
f 13/22/10 9/24/10 10/23/10 14/21/10
f 11/25/11 9/26/11 13/22/11 15/20/11
f 16/19/12 14/21/12 10/28/12 12/27/12
o Cube.002
v -22.881430 -1.037120 -3.741922
v -22.774055 -1.380423 -3.741922
v -22.881430 -1.037120 -9.327037
v -22.774055 -1.380423 -9.327037
v -13.892341 1.774367 -3.741922
v -13.784967 1.431064 -3.741922
v -13.892341 1.774367 -9.327037
v -13.784967 1.431064 -9.327037
vn -0.9544 -0.2985 -0.0000
vn -0.0000 -0.0000 -1.0000
vn 0.9544 0.2985 -0.0000
vn -0.0000 -0.0000 1.0000
vn -0.2985 0.9544 -0.0000
vn 0.2985 -0.9544 -0.0000
vt 0.375000 0.000000
vt 0.625000 0.000000
vt 0.625000 0.250000
vt 0.375000 0.250000
vt 0.625000 0.500000
vt 0.375000 0.500000
vt 0.625000 0.750000
vt 0.375000 0.750000
vt 0.625000 1.000000
vt 0.375000 1.000000
vt 0.125000 0.500000
vt 0.125000 0.750000
vt 0.875000 0.500000
vt 0.875000 0.750000
s 0
f 17/29/13 19/32/13 20/31/13 18/30/13
f 19/32/14 23/34/14 24/33/14 20/31/14
f 23/34/15 21/36/15 22/35/15 24/33/15
f 21/36/16 17/38/16 18/37/16 22/35/16
f 19/39/17 17/40/17 21/36/17 23/34/17
f 24/33/18 22/35/18 18/42/18 20/41/18
o Cube.003
v -13.949217 -3.865900 -3.647422
v -13.949217 1.747525 -3.647422
v -13.949217 -3.865900 -9.260846
v -13.949217 1.747525 -9.260846
v -8.335793 -3.865900 -3.647422
v -8.335793 1.747525 -3.647422
v -8.335793 -3.865900 -9.260846
v -8.335793 1.747525 -9.260846
vn -1.0000 -0.0000 -0.0000
vn -0.0000 -0.0000 -1.0000
vn 1.0000 -0.0000 -0.0000
vn -0.0000 -0.0000 1.0000
vn -0.0000 -1.0000 -0.0000
vn -0.0000 1.0000 -0.0000
vt 0.375000 0.000000
vt 0.625000 0.000000
vt 0.625000 0.250000
vt 0.375000 0.250000
vt 0.625000 0.500000
vt 0.375000 0.500000
vt 0.625000 0.750000
vt 0.375000 0.750000
vt 0.625000 1.000000
vt 0.375000 1.000000
vt 0.125000 0.500000
vt 0.125000 0.750000
vt 0.875000 0.500000
vt 0.875000 0.750000
s 0
f 25/43/19 26/44/19 28/45/19 27/46/19
f 27/46/20 28/45/20 32/47/20 31/48/20
f 31/48/21 32/47/21 30/49/21 29/50/21
f 29/50/22 30/49/22 26/51/22 25/52/22
f 27/53/23 31/48/23 29/50/23 25/54/23
f 32/47/24 28/55/24 26/56/24 30/49/24
o Cube.004
v -12.862331 -5.377727 34.627571
v -12.862331 0.235698 34.627571
v -12.862331 -5.377727 29.014145
v -12.862331 0.235698 29.014145
v -7.248907 -5.377727 34.627571
v -7.248907 0.235698 34.627571
v -7.248907 -5.377727 29.014145
v -7.248907 0.235698 29.014145
vn -1.0000 -0.0000 -0.0000
vn -0.0000 -0.0000 -1.0000
vn 1.0000 -0.0000 -0.0000
vn -0.0000 -0.0000 1.0000
vn -0.0000 -1.0000 -0.0000
vn -0.0000 1.0000 -0.0000
vt 0.375000 0.000000
vt 0.625000 0.000000
vt 0.625000 0.250000
vt 0.375000 0.250000
vt 0.625000 0.500000
vt 0.375000 0.500000
vt 0.625000 0.750000
vt 0.375000 0.750000
vt 0.625000 1.000000
vt 0.375000 1.000000
vt 0.125000 0.500000
vt 0.125000 0.750000
vt 0.875000 0.500000
vt 0.875000 0.750000
s 0
f 33/57/25 34/58/25 36/59/25 35/60/25
f 35/60/26 36/59/26 40/61/26 39/62/26
f 39/62/27 40/61/27 38/63/27 37/64/27
f 37/64/28 38/63/28 34/65/28 33/66/28
f 35/67/29 39/62/29 37/64/29 33/68/29
f 40/61/30 36/69/30 34/70/30 38/63/30
o Cube.005
v -22.130610 -0.371879 34.533070
v -22.106842 -0.730795 34.533070
v -22.130610 -0.371879 28.947956
v -22.106842 -0.730795 28.947956
v -12.732688 0.250416 34.533070
v -12.708921 -0.108500 34.533070
v -12.732688 0.250416 28.947956
v -12.708921 -0.108500 28.947956
vn -0.9978 -0.0661 -0.0000
vn -0.0000 -0.0000 -1.0000
vn 0.9978 0.0661 -0.0000
vn -0.0000 -0.0000 1.0000
vn -0.0661 0.9978 -0.0000
vn 0.0661 -0.9978 -0.0000
vt 0.375000 0.000000
vt 0.625000 0.000000
vt 0.625000 0.250000
vt 0.375000 0.250000
vt 0.625000 0.500000
vt 0.375000 0.500000
vt 0.625000 0.750000
vt 0.375000 0.750000
vt 0.625000 1.000000
vt 0.375000 1.000000
vt 0.125000 0.500000
vt 0.125000 0.750000
vt 0.875000 0.500000
vt 0.875000 0.750000
s 0
f 41/71/31 43/74/31 44/73/31 42/72/31
f 43/74/32 47/76/32 48/75/32 44/73/32
f 47/76/33 45/78/33 46/77/33 48/75/33
f 45/78/34 41/80/34 42/79/34 46/77/34
f 43/81/35 41/82/35 45/78/35 47/76/35
f 48/75/36 46/77/36 42/84/36 44/83/36
o Cube.006
v -23.385170 -0.499218 16.378868
v -23.333513 -0.855192 16.378868
v -23.385170 -0.499218 10.793754
v -23.333513 -0.855192 10.793754
v -14.064299 0.853386 16.378868
v -14.012642 0.497412 16.378868
v -14.064299 0.853386 10.793754
v -14.012642 0.497412 10.793754
vn -0.9896 -0.1436 -0.0000
vn -0.0000 -0.0000 -1.0000
vn 0.9896 0.1436 -0.0000
vn -0.0000 -0.0000 1.0000
vn -0.1436 0.9896 -0.0000
vn 0.1436 -0.9896 -0.0000
vt 0.375000 0.000000
vt 0.625000 0.000000
vt 0.625000 0.250000
vt 0.375000 0.250000
vt 0.625000 0.500000
vt 0.375000 0.500000
vt 0.625000 0.750000
vt 0.375000 0.750000
vt 0.625000 1.000000
vt 0.375000 1.000000
vt 0.125000 0.500000
vt 0.125000 0.750000
vt 0.875000 0.500000
vt 0.875000 0.750000
s 0
f 49/85/37 51/88/37 52/87/37 50/86/37
f 51/88/38 55/90/38 56/89/38 52/87/38
f 55/90/39 53/92/39 54/91/39 56/89/39
f 53/92/40 49/94/40 50/93/40 54/91/40
f 51/95/41 49/96/41 53/92/41 55/90/41
f 56/89/42 54/91/42 50/98/42 52/97/42
o Cube.007
v -14.026798 -4.733101 16.473370
v -14.026798 0.880324 16.473370
v -14.026798 -4.733101 10.859944
v -14.026798 0.880324 10.859944
v -8.413374 -4.733101 16.473370
v -8.413374 0.880324 16.473370
v -8.413374 -4.733101 10.859944
v -8.413374 0.880324 10.859944
vn -1.0000 -0.0000 -0.0000
vn -0.0000 -0.0000 -1.0000
vn 1.0000 -0.0000 -0.0000
vn -0.0000 -0.0000 1.0000
vn -0.0000 -1.0000 -0.0000
vn -0.0000 1.0000 -0.0000
vt 0.375000 0.000000
vt 0.625000 0.000000
vt 0.625000 0.250000
vt 0.375000 0.250000
vt 0.625000 0.500000
vt 0.375000 0.500000
vt 0.625000 0.750000
vt 0.375000 0.750000
vt 0.625000 1.000000
vt 0.375000 1.000000
vt 0.125000 0.500000
vt 0.125000 0.750000
vt 0.875000 0.500000
vt 0.875000 0.750000
s 0
f 57/99/43 58/100/43 60/101/43 59/102/43
f 59/102/44 60/101/44 64/103/44 63/104/44
f 63/104/45 64/103/45 62/105/45 61/106/45
f 61/106/46 62/105/46 58/107/46 57/108/46
f 59/109/47 63/104/47 61/106/47 57/110/47
f 64/103/48 60/111/48 58/112/48 62/105/48
o Cube.008
v 28.501907 -1.130029 7.274695
v 28.501907 4.483396 7.274695
v 28.501907 -1.130029 1.661271
v 28.501907 4.483396 1.661271
v 34.115334 -1.130029 7.274695
v 34.115334 4.483396 7.274695
v 34.115334 -1.130029 1.661271
v 34.115334 4.483396 1.661271
vn -1.0000 -0.0000 -0.0000
vn -0.0000 -0.0000 -1.0000
vn 1.0000 -0.0000 -0.0000
vn -0.0000 -0.0000 1.0000
vn -0.0000 -1.0000 -0.0000
vn -0.0000 1.0000 -0.0000
vt 0.375000 0.000000
vt 0.625000 0.000000
vt 0.625000 0.250000
vt 0.375000 0.250000
vt 0.625000 0.500000
vt 0.375000 0.500000
vt 0.625000 0.750000
vt 0.375000 0.750000
vt 0.625000 1.000000
vt 0.375000 1.000000
vt 0.125000 0.500000
vt 0.125000 0.750000
vt 0.875000 0.500000
vt 0.875000 0.750000
s 0
f 65/113/49 66/114/49 68/115/49 67/116/49
f 67/116/50 68/115/50 72/117/50 71/118/50
f 71/118/51 72/117/51 70/119/51 69/120/51
f 69/120/52 70/119/52 66/121/52 65/122/52
f 67/123/53 71/118/53 69/120/53 65/124/53
f 72/117/54 68/125/54 66/126/54 70/119/54
o Cube.009
v 20.967079 -1.128067 7.180196
v 21.181816 -1.416640 7.180196
v 20.967079 -1.128067 1.595081
v 21.181816 -1.416640 1.595081
v 28.523098 4.494630 7.180196
v 28.737835 4.206058 7.180196
v 28.523098 4.494630 1.595081
v 28.737835 4.206058 1.595081
vn -0.8023 -0.5970 -0.0000
vn -0.0000 -0.0000 -1.0000
vn 0.8023 0.5970 -0.0000
vn -0.0000 -0.0000 1.0000
vn -0.5970 0.8023 -0.0000
vn 0.5970 -0.8023 -0.0000
vt 0.375000 0.000000
vt 0.625000 0.000000
vt 0.625000 0.250000
vt 0.375000 0.250000
vt 0.625000 0.500000
vt 0.375000 0.500000
vt 0.625000 0.750000
vt 0.375000 0.750000
vt 0.625000 1.000000
vt 0.375000 1.000000
vt 0.125000 0.500000
vt 0.125000 0.750000
vt 0.875000 0.500000
vt 0.875000 0.750000
s 0
f 73/127/55 75/130/55 76/129/55 74/128/55
f 75/130/56 79/132/56 80/131/56 76/129/56
f 79/132/57 77/134/57 78/133/57 80/131/57
f 77/134/58 73/136/58 74/135/58 78/133/58
f 75/137/59 73/138/59 77/134/59 79/132/59
f 80/131/60 78/133/60 74/140/60 76/139/60
o Cube.010
v 20.400162 -0.396840 31.893902
v 20.552214 -0.722825 31.893902
v 20.400162 -0.396840 26.308788
v 20.552214 -0.722825 26.308788
v 28.935797 3.584508 31.893902
v 29.087849 3.258523 31.893902
v 28.935797 3.584508 26.308788
v 29.087849 3.258523 26.308788
vn -0.9063 -0.4227 -0.0000
vn -0.0000 -0.0000 -1.0000
vn 0.9063 0.4227 -0.0000
vn -0.0000 -0.0000 1.0000
vn -0.4227 0.9063 -0.0000
vn 0.4227 -0.9063 -0.0000
vt 0.375000 0.000000
vt 0.625000 0.000000
vt 0.625000 0.250000
vt 0.375000 0.250000
vt 0.625000 0.500000
vt 0.375000 0.500000
vt 0.625000 0.750000
vt 0.375000 0.750000
vt 0.625000 1.000000
vt 0.375000 1.000000
vt 0.125000 0.500000
vt 0.125000 0.750000
vt 0.875000 0.500000
vt 0.875000 0.750000
s 0
f 81/141/61 83/144/61 84/143/61 82/142/61
f 83/144/62 87/146/62 88/145/62 84/143/62
f 87/146/63 85/148/63 86/147/63 88/145/63
f 85/148/64 81/150/64 82/149/64 86/147/64
f 83/151/65 81/152/65 85/148/65 87/146/65
f 88/145/66 86/147/66 82/154/66 84/153/66
o Cube.011
v 28.869282 -1.970600 31.988403
v 28.869282 3.642825 31.988403
v 28.869282 -1.970600 26.374977
v 28.869282 3.642825 26.374977
v 34.482708 -1.970600 31.988403
v 34.482708 3.642825 31.988403
v 34.482708 -1.970600 26.374977
v 34.482708 3.642825 26.374977
vn -1.0000 -0.0000 -0.0000
vn -0.0000 -0.0000 -1.0000
vn 1.0000 -0.0000 -0.0000
vn -0.0000 -0.0000 1.0000
vn -0.0000 -1.0000 -0.0000
vn -0.0000 1.0000 -0.0000
vt 0.375000 0.000000
vt 0.625000 0.000000
vt 0.625000 0.250000
vt 0.375000 0.250000
vt 0.625000 0.500000
vt 0.375000 0.500000
vt 0.625000 0.750000
vt 0.375000 0.750000
vt 0.625000 1.000000
vt 0.375000 1.000000
vt 0.125000 0.500000
vt 0.125000 0.750000
vt 0.875000 0.500000
vt 0.875000 0.750000
s 0
f 89/155/67 90/156/67 92/157/67 91/158/67
f 91/158/68 92/157/68 96/159/68 95/160/68
f 95/160/69 96/159/69 94/161/69 93/162/69
f 93/162/70 94/161/70 90/163/70 89/164/70
f 91/165/71 95/160/71 93/162/71 89/166/71
f 96/159/72 92/167/72 90/168/72 94/161/72
o Cube.012
v 26.080425 -0.536989 -17.111164
v 26.080425 5.076436 -17.111164
v 26.080425 -0.536989 -22.724590
v 26.080425 5.076436 -22.724590
v 31.693851 -0.536989 -17.111164
v 31.693851 5.076436 -17.111164
v 31.693851 -0.536989 -22.724590
v 31.693851 5.076436 -22.724590
vn -1.0000 -0.0000 -0.0000
vn -0.0000 -0.0000 -1.0000
vn 1.0000 -0.0000 -0.0000
vn -0.0000 -0.0000 1.0000
vn -0.0000 -1.0000 -0.0000
vn -0.0000 1.0000 -0.0000
vt 0.375000 0.000000
vt 0.625000 0.000000
vt 0.625000 0.250000
vt 0.375000 0.250000
vt 0.625000 0.500000
vt 0.375000 0.500000
vt 0.625000 0.750000
vt 0.375000 0.750000
vt 0.625000 1.000000
vt 0.375000 1.000000
vt 0.125000 0.500000
vt 0.125000 0.750000
vt 0.875000 0.500000
vt 0.875000 0.750000
s 0
f 97/169/73 98/170/73 100/171/73 99/172/73
f 99/172/74 100/171/74 104/173/74 103/174/74
f 103/174/75 104/173/75 102/175/75 101/176/75
f 101/176/76 102/175/76 98/177/76 97/178/76
f 99/179/77 103/174/77 101/176/77 97/180/77
f 104/173/78 100/181/78 98/182/78 102/175/78
o Cube.013
v 18.316458 -0.257205 -17.205666
v 18.521133 -0.552999 -17.205666
v 18.316458 -0.257205 -22.790779
v 18.521133 -0.552999 -22.790779
v 26.061565 5.102037 -17.205666
v 26.266241 4.806243 -17.205666
v 26.061565 5.102037 -22.790779
v 26.266241 4.806243 -22.790779
vn -0.8223 -0.5690 -0.0000
vn -0.0000 -0.0000 -1.0000
vn 0.8223 0.5690 -0.0000
vn -0.0000 -0.0000 1.0000
vn -0.5690 0.8223 -0.0000
vn 0.5690 -0.8223 -0.0000
vt 0.375000 0.000000
vt 0.625000 0.000000
vt 0.625000 0.250000
vt 0.375000 0.250000
vt 0.625000 0.500000
vt 0.375000 0.500000
vt 0.625000 0.750000
vt 0.375000 0.750000
vt 0.625000 1.000000
vt 0.375000 1.000000
vt 0.125000 0.500000
vt 0.125000 0.750000
vt 0.875000 0.500000
vt 0.875000 0.750000
s 0
f 105/183/79 107/186/79 108/185/79 106/184/79
f 107/186/80 111/188/80 112/187/80 108/185/80
f 111/188/81 109/190/81 110/189/81 112/187/81
f 109/190/82 105/192/82 106/191/82 110/189/82
f 107/193/83 105/194/83 109/190/83 111/188/83
f 112/187/84 110/189/84 106/196/84 108/195/84
o Plane
v -45.811596 0.000000 45.811596
v 45.811596 0.000000 45.811596
v -45.811596 0.000000 -45.811596
v 45.811596 0.000000 -45.811596
vn -0.0000 1.0000 -0.0000
vt 0.000000 0.000000
vt 1.000000 0.000000
vt 1.000000 1.000000
vt 0.000000 1.000000
s 0
f 113/197/85 114/198/85 116/199/85 115/200/85
